# xmcd
#
# Track frame offsets: 
#        150
#        18400
#        39407
#        65491
#        84619
#        105761
#        127572
#        145353
#        165738
#        188230
#        210595
#        238145
#        260508
#        286086
#        307940
#        322510
#        337242
#
# Disc length: 4786 seconds
#
# Revision: 0
# Processed by: cddbd v1.5.2PL0 Copyright (c) Steve Scherf et al.
# Submitted via: ExactAudioCopy v0.95b4
#
DISCID=e112b011
DTITLE=Tony! Toni! Tone! - Hits
DYEAR=1997
DGENRE=R&B
TTITLE0=f
TTITLE1=f
TTITLE2=f
TTITLE3=f
TTITLE4=f
TTITLE5=f
TTITLE6=f
TTITLE7=Anniversary
TTITLE8=f
TTITLE9=f
TTITLE10=f
TTITLE11=f
TTITLE12=f
TTITLE13=f
TTITLE14=f
TTITLE15=f
TTITLE16=f
EXTD=
EXTT0=
EXTT1=
EXTT2=
EXTT3=
EXTT4=
EXTT5=
EXTT6=
EXTT7=
EXTT8=
EXTT9=
EXTT10=
EXTT11=
EXTT12=
EXTT13=
EXTT14=
EXTT15=
EXTT16=
PLAYORDER=
